<mxfile host="app.diagrams.net" modified="2022-07-27T12:46:55.271Z" agent="5.0 (Windows NT 10.0; Win64; x64) AppleWebKit/537.36 (KHTML, like Gecko) Chrome/103.0.0.0 Safari/537.36" etag="EKFzoCA05IGym4GlQbzK" version="17.1.2" type="github">
  <diagram id="6Ur0tI6xj9s_BqF-d_32" name="Page-1">
    <mxGraphModel dx="1038" dy="521" grid="1" gridSize="10" guides="1" tooltips="1" connect="1" arrows="1" fold="1" page="1" pageScale="1" pageWidth="1400" pageHeight="850" math="0" shadow="0">
      <root>
        <mxCell id="0" />
        <mxCell id="1" parent="0" />
        <mxCell id="7UWCBJyXBfLWfq1eQwi7-22" style="edgeStyle=orthogonalEdgeStyle;rounded=0;orthogonalLoop=1;jettySize=auto;html=1;entryX=0;entryY=0.75;entryDx=0;entryDy=0;entryPerimeter=0;shape=link;" parent="1" source="7UWCBJyXBfLWfq1eQwi7-1" target="7UWCBJyXBfLWfq1eQwi7-9" edge="1">
          <mxGeometry relative="1" as="geometry" />
        </mxCell>
        <mxCell id="7UWCBJyXBfLWfq1eQwi7-1" value="" style="swimlane;startSize=0;" parent="1" vertex="1">
          <mxGeometry x="90" y="70" width="160" height="360" as="geometry" />
        </mxCell>
        <mxCell id="7UWCBJyXBfLWfq1eQwi7-3" value="" style="aspect=fixed;html=1;points=[];align=center;image;fontSize=12;image=img/lib/azure2/compute/Virtual_Machines_Classic.svg;" parent="7UWCBJyXBfLWfq1eQwi7-1" vertex="1">
          <mxGeometry x="79" y="160" width="69" height="64" as="geometry" />
        </mxCell>
        <mxCell id="7UWCBJyXBfLWfq1eQwi7-5" value="" style="sketch=0;outlineConnect=0;fontColor=#232F3E;gradientColor=none;fillColor=#2E27AD;strokeColor=none;dashed=0;verticalLabelPosition=bottom;verticalAlign=top;align=center;html=1;fontSize=12;fontStyle=0;aspect=fixed;pointerEvents=1;shape=mxgraph.aws4.rds_oracle_instance;" parent="7UWCBJyXBfLWfq1eQwi7-1" vertex="1">
          <mxGeometry x="70" y="60" width="78" height="78" as="geometry" />
        </mxCell>
        <mxCell id="7UWCBJyXBfLWfq1eQwi7-14" value="Loan IQ&lt;span style=&quot;color: rgba(0 , 0 , 0 , 0) ; font-family: monospace ; font-size: 0px ; font-weight: 400&quot;&gt;%3CmxGraphModel%3E%3Croot%3E%3CmxCell%20id%3D%220%22%2F%3E%3CmxCell%20id%3D%221%22%20parent%3D%220%22%2F%3E%3CmxCell%20id%3D%222%22%20value%3D%22%22%20style%3D%22aspect%3Dfixed%3Bhtml%3D1%3Bpoints%3D%5B%5D%3Balign%3Dcenter%3Bimage%3BfontSize%3D12%3Bimage%3Dimg%2Flib%2Fazure2%2Fcompute%2FVirtual_Machines_Classic.svg%3B%22%20vertex%3D%221%22%20parent%3D%221%22%3E%3CmxGeometry%20x%3D%22170%22%20y%3D%22208%22%20width%3D%2269%22%20height%3D%2264%22%20as%3D%22geometry%22%2F%3E%3C%2FmxCell%3E%3C%2Froot%3E%3C%2FmxGraphModel%3E&lt;/span&gt;" style="text;strokeColor=none;fillColor=none;html=1;fontSize=24;fontStyle=1;verticalAlign=middle;align=center;" parent="7UWCBJyXBfLWfq1eQwi7-1" vertex="1">
          <mxGeometry x="30" y="315" width="100" height="40" as="geometry" />
        </mxCell>
        <mxCell id="7UWCBJyXBfLWfq1eQwi7-2" value="" style="swimlane;startSize=0;" parent="1" vertex="1">
          <mxGeometry x="810" y="60" width="140" height="360" as="geometry" />
        </mxCell>
        <mxCell id="7UWCBJyXBfLWfq1eQwi7-7" value="" style="aspect=fixed;html=1;points=[];align=center;image;fontSize=12;image=img/lib/azure2/compute/Virtual_Machines_Classic.svg;" parent="7UWCBJyXBfLWfq1eQwi7-2" vertex="1">
          <mxGeometry x="30" y="120" width="69" height="64" as="geometry" />
        </mxCell>
        <mxCell id="7UWCBJyXBfLWfq1eQwi7-15" value="Aurius" style="text;strokeColor=none;fillColor=none;html=1;fontSize=24;fontStyle=1;verticalAlign=middle;align=center;" parent="7UWCBJyXBfLWfq1eQwi7-2" vertex="1">
          <mxGeometry x="30" y="320" width="100" height="40" as="geometry" />
        </mxCell>
        <mxCell id="7UWCBJyXBfLWfq1eQwi7-32" style="edgeStyle=orthogonalEdgeStyle;rounded=0;orthogonalLoop=1;jettySize=auto;html=1;endArrow=openAsync;endFill=0;shape=link;" parent="1" source="7UWCBJyXBfLWfq1eQwi7-6" target="7UWCBJyXBfLWfq1eQwi7-2" edge="1">
          <mxGeometry relative="1" as="geometry" />
        </mxCell>
        <mxCell id="7UWCBJyXBfLWfq1eQwi7-6" value="KAFKA TOPICS&lt;br&gt;CONSUME/ACKNOWLEDGE/ERROR" style="sketch=0;points=[[0,0,0],[0.25,0,0],[0.5,0,0],[0.75,0,0],[1,0,0],[0,1,0],[0.25,1,0],[0.5,1,0],[0.75,1,0],[1,1,0],[0,0.25,0],[0,0.5,0],[0,0.75,0],[1,0.25,0],[1,0.5,0],[1,0.75,0]];outlineConnect=0;fontColor=#232F3E;gradientColor=#945DF2;gradientDirection=north;fillColor=#5A30B5;strokeColor=#ffffff;dashed=0;verticalLabelPosition=bottom;verticalAlign=top;align=center;html=1;fontSize=12;fontStyle=0;aspect=fixed;shape=mxgraph.aws4.resourceIcon;resIcon=mxgraph.aws4.managed_streaming_for_kafka;" parent="1" vertex="1">
          <mxGeometry x="680" y="201" width="78" height="78" as="geometry" />
        </mxCell>
        <mxCell id="7UWCBJyXBfLWfq1eQwi7-25" style="edgeStyle=orthogonalEdgeStyle;rounded=0;orthogonalLoop=1;jettySize=auto;html=1;entryX=0.26;entryY=0.05;entryDx=0;entryDy=0;entryPerimeter=0;" parent="1" source="7UWCBJyXBfLWfq1eQwi7-9" target="7UWCBJyXBfLWfq1eQwi7-10" edge="1">
          <mxGeometry relative="1" as="geometry" />
        </mxCell>
        <mxCell id="7UWCBJyXBfLWfq1eQwi7-26" style="edgeStyle=orthogonalEdgeStyle;rounded=0;orthogonalLoop=1;jettySize=auto;html=1;entryX=0.722;entryY=-0.036;entryDx=0;entryDy=0;entryPerimeter=0;" parent="1" source="7UWCBJyXBfLWfq1eQwi7-9" target="7UWCBJyXBfLWfq1eQwi7-13" edge="1">
          <mxGeometry relative="1" as="geometry" />
        </mxCell>
        <mxCell id="7UWCBJyXBfLWfq1eQwi7-30" style="edgeStyle=orthogonalEdgeStyle;rounded=0;orthogonalLoop=1;jettySize=auto;html=1;endArrow=async;endFill=1;shape=link;" parent="1" source="7UWCBJyXBfLWfq1eQwi7-9" edge="1">
          <mxGeometry relative="1" as="geometry">
            <mxPoint x="670" y="230" as="targetPoint" />
          </mxGeometry>
        </mxCell>
        <mxCell id="7UWCBJyXBfLWfq1eQwi7-9" value="API&amp;nbsp;" style="html=1;strokeColor=none;fillColor=#0079D6;labelPosition=center;verticalLabelPosition=middle;verticalAlign=top;align=center;fontSize=12;outlineConnect=0;spacingTop=-6;fontColor=#FFFFFF;sketch=0;shape=mxgraph.sitemap.services;" parent="1" vertex="1">
          <mxGeometry x="370" y="190" width="110" height="80" as="geometry" />
        </mxCell>
        <mxCell id="7UWCBJyXBfLWfq1eQwi7-28" style="edgeStyle=orthogonalEdgeStyle;rounded=0;orthogonalLoop=1;jettySize=auto;html=1;" parent="1" source="7UWCBJyXBfLWfq1eQwi7-10" target="7UWCBJyXBfLWfq1eQwi7-11" edge="1">
          <mxGeometry relative="1" as="geometry" />
        </mxCell>
        <mxCell id="7UWCBJyXBfLWfq1eQwi7-10" value="No Sql" style="strokeWidth=2;html=1;shape=mxgraph.flowchart.database;whiteSpace=wrap;" parent="1" vertex="1">
          <mxGeometry x="320" y="320" width="60" height="60" as="geometry" />
        </mxCell>
        <mxCell id="7UWCBJyXBfLWfq1eQwi7-29" style="edgeStyle=orthogonalEdgeStyle;rounded=0;orthogonalLoop=1;jettySize=auto;html=1;entryX=0.008;entryY=0.936;entryDx=0;entryDy=0;entryPerimeter=0;" parent="1" source="7UWCBJyXBfLWfq1eQwi7-11" target="7UWCBJyXBfLWfq1eQwi7-12" edge="1">
          <mxGeometry relative="1" as="geometry" />
        </mxCell>
        <mxCell id="7UWCBJyXBfLWfq1eQwi7-11" value="DashBoard" style="sketch=0;pointerEvents=1;shadow=0;dashed=0;html=1;strokeColor=none;fillColor=#505050;labelPosition=center;verticalLabelPosition=bottom;verticalAlign=top;outlineConnect=0;align=center;shape=mxgraph.office.concepts.website;" parent="1" vertex="1">
          <mxGeometry x="285.5" y="430" width="129" height="110" as="geometry" />
        </mxCell>
        <mxCell id="7UWCBJyXBfLWfq1eQwi7-12" value="" style="aspect=fixed;perimeter=ellipsePerimeter;html=1;align=center;shadow=0;dashed=0;spacingTop=3;image;image=img/lib/active_directory/user_accounts.svg;" parent="1" vertex="1">
          <mxGeometry x="480" y="440" width="50" height="48.5" as="geometry" />
        </mxCell>
        <mxCell id="7UWCBJyXBfLWfq1eQwi7-13" value="Logging _ELK" style="sketch=0;pointerEvents=1;shadow=0;dashed=0;html=1;strokeColor=none;labelPosition=center;verticalLabelPosition=bottom;verticalAlign=top;align=center;fillColor=#505050;shape=mxgraph.mscae.oms.log_management" parent="1" vertex="1">
          <mxGeometry x="410" y="320" width="41" height="50" as="geometry" />
        </mxCell>
        <mxCell id="7UWCBJyXBfLWfq1eQwi7-16" value="Event" style="text;html=1;strokeColor=none;fillColor=none;align=center;verticalAlign=middle;whiteSpace=wrap;rounded=0;" parent="1" vertex="1">
          <mxGeometry x="270" y="215" width="60" height="30" as="geometry" />
        </mxCell>
        <mxCell id="7UWCBJyXBfLWfq1eQwi7-31" value="Subscribe to KAFKA Topics" style="text;html=1;strokeColor=none;fillColor=none;align=center;verticalAlign=middle;whiteSpace=wrap;rounded=0;" parent="1" vertex="1">
          <mxGeometry x="540" y="185" width="100" height="30" as="geometry" />
        </mxCell>
        <mxCell id="7UWCBJyXBfLWfq1eQwi7-33" value="Topology-&amp;nbsp; Integration UK Branch and LOAN IQ" style="text;strokeColor=none;fillColor=none;html=1;fontSize=24;fontStyle=1;verticalAlign=middle;align=center;" parent="1" vertex="1">
          <mxGeometry x="351" y="20" width="100" height="40" as="geometry" />
        </mxCell>
        <mxCell id="PB7kLcMVWGxdtAut7v0w-2" value="" style="endArrow=classic;html=1;rounded=0;dashed=1;" edge="1" parent="1">
          <mxGeometry width="50" height="50" relative="1" as="geometry">
            <mxPoint x="275" y="215" as="sourcePoint" />
            <mxPoint x="350" y="215" as="targetPoint" />
          </mxGeometry>
        </mxCell>
        <mxCell id="PB7kLcMVWGxdtAut7v0w-3" value="" style="endArrow=classic;html=1;rounded=0;dashed=1;" edge="1" parent="1">
          <mxGeometry width="50" height="50" relative="1" as="geometry">
            <mxPoint x="350" y="270.5" as="sourcePoint" />
            <mxPoint x="270" y="270" as="targetPoint" />
          </mxGeometry>
        </mxCell>
        <mxCell id="PB7kLcMVWGxdtAut7v0w-4" value="" style="endArrow=classic;html=1;rounded=0;dashed=1;" edge="1" parent="1">
          <mxGeometry width="50" height="50" relative="1" as="geometry">
            <mxPoint x="640" y="250" as="sourcePoint" />
            <mxPoint x="560" y="249.5" as="targetPoint" />
          </mxGeometry>
        </mxCell>
        <mxCell id="PB7kLcMVWGxdtAut7v0w-5" value="" style="endArrow=classic;html=1;rounded=0;dashed=1;" edge="1" parent="1">
          <mxGeometry width="50" height="50" relative="1" as="geometry">
            <mxPoint x="565" y="270" as="sourcePoint" />
            <mxPoint x="640" y="270" as="targetPoint" />
          </mxGeometry>
        </mxCell>
      </root>
    </mxGraphModel>
  </diagram>
</mxfile>
